<svg width="480" height="314" viewBox="0 0 480 314" fill="none" xmlns="http://www.w3.org/2000/svg">
<path d="M116.537 3.93998L128.787 0.0199717C139.893 0.0199717 145.447 14.72 145.447 44.12L160.637 157.31L162.597 159.27L218.947 138.69C226.46 138.69 230.543 144.407 231.197 155.84C231.197 164.333 210.453 174.623 168.967 186.71L167.007 187.69V189.65C167.007 196.51 177.787 232.28 199.347 296.96V297.94C199.347 304.147 194.283 309.373 184.157 313.62C174.683 313.62 168.477 302.35 165.537 279.81C158.023 263.477 148.877 236.527 138.097 198.96H136.137C93.3433 207.78 71.9466 215.293 71.9466 221.5C48.4266 272.46 30.6233 297.94 18.5366 297.94C11.6766 297.94 7.59331 293.53 6.28664 284.71C6.28664 276.87 14.9433 261.517 32.2566 238.65L40.0966 221.5H27.8466L18.5366 223.46C6.44997 220.52 0.40664 214.313 0.40664 204.84C5.30664 193.407 12.4933 187.69 21.9666 187.69L34.2166 192.59C52.51 192.59 61.6566 185.893 61.6566 172.5C78.3166 133.3 96.61 77.1133 116.537 3.93998ZM120.947 93.12L92.0366 180.34C118.823 175.113 132.217 170.05 132.217 165.15C127.317 117.13 123.56 93.12 120.947 93.12ZM329.53 16.19H331.49C371.016 23.3766 390.78 42.4866 390.78 73.52V82.34C390.78 116.64 368.893 150.777 325.12 184.75V186.71C396.006 250.083 445.006 281.77 472.12 281.77C477.02 285.363 479.47 289.773 479.47 295C479.47 302.513 473.916 307.25 462.81 309.21C435.696 309.21 385.063 276.543 310.91 211.21L289.84 199.94H288.37C297.516 236.527 302.09 264.783 302.09 284.71C302.09 293.203 296.863 299.247 286.41 302.84C271.383 302.84 261.91 266.09 257.99 192.59C247.536 158.617 242.31 131.503 242.31 111.25V106.84C242.31 77.1133 248.843 62.25 261.91 62.25L271.22 67.15H274.16C289.84 33.1767 308.296 16.19 329.53 16.19ZM289.84 147.02L288.37 165.15C318.75 165.15 343.25 139.997 361.87 89.69V71.56C361.87 57.1867 352.07 48.53 332.47 45.59H329.53C308.95 45.59 295.72 79.4 289.84 147.02Z" fill="white"/>
</svg>
